<svg version="1.2" xmlns="http://www.w3.org/2000/svg" viewBox="0 0 527 339" width="527" height="339">
	<title>Tripadvisor_lockup_horizontal_secondary_registered-svg</title>
	<style>
		.s0 { fill: #008c9d } 
	</style>
	<g>
		<path fill-rule="evenodd" class="s0" d="m527 196.4c0 72.7-59 131.6-131.7 131.6-34.5 0-65.9-13.3-89.4-35l-42.2 45.8-42.1-45.9c-23.5 21.8-54.9 35.1-89.5 35.1-72.6 0-131.5-58.9-131.5-131.6 0-38.5 16.5-73.2 42.9-97.2l-43.1-46.9h95.7c47.7-32.6 105.3-51.6 167.6-51.6 62.5 0 120.2 19 168 51.6h95.4l-43 46.9c26.4 24 42.9 58.7 42.9 97.2zm-305.8 0c0-49.2-39.8-89-89-89-49.3 0-89.1 39.8-89.1 89 0 49.3 39.8 89.1 89.1 89.1 49.2 0 89-39.8 89-89.1zm141.4-133c-30.4-12.7-63.8-19.7-98.9-19.7-35 0-68.4 7-98.8 19.7 56.3 21.5 98.9 71.8 98.9 130.4 0-58.6 42.6-108.8 98.8-130.4zm121.8 133c0-49.2-39.8-89-89-89-49.3 0-89.1 39.8-89.1 89 0 49.3 39.8 89.1 89.1 89.1 49.2 0 89-39.8 89-89.1zm-89 46.6c-25.8 0-46.7-20.8-46.7-46.6 0-25.8 20.9-46.7 46.7-46.7 25.8 0 46.6 20.9 46.6 46.7 0 25.8-20.8 46.6-46.6 46.6zm-263.2 0.1c-25.8 0-46.7-20.9-46.7-46.7 0-25.8 20.9-46.7 46.7-46.7 25.8 0 46.6 20.9 46.6 46.7 0 25.8-20.8 46.7-46.6 46.7z"/>
	</g>
</svg>