<?xml version="1.0" encoding="utf-8"?>
<!-- Generator: Adobe Illustrator 23.0.3, SVG Export Plug-In . SVG Version: 6.00 Build 0)  -->
<svg version="1.1" id="Calque_1" xmlns="http://www.w3.org/2000/svg" xmlns:xlink="http://www.w3.org/1999/xlink" x="0px" y="0px"
	 viewBox="0 0 636.2 165.3" style="enable-background:new 0 0 636.2 165.3;" xml:space="preserve">
<style type="text/css">
	.st0{fill:#008C9D;}
	.st1{enable-background:new;}
</style>
<g id="logo" transform="translate(-4291.791 -146.267)">
	<path id="Tracé_2548" class="st0" d="M4437.6,215.7c-0.2-3.3-0.7-6.7-1.4-10l-0.5-2.3l0,0c-8.4-35-40.4-59.7-76.5-56.9
		c-3.3,0.2-6.5,0.7-9.7,1.4l-2.2,0.5l0,0c-9.9,2.5-19.1,7.1-27,13.4c4.9,5.3,9.4,10.9,13.5,16.7c3.8,4.8,7.3,9.8,10.5,14.9
		c4.8-7.1,10.7-11.5,17.8-13.2c8.1-1.9,15.3-0.7,21.9,3.7c6.2,4.4,10.3,10.8,12.2,19.3c1.9,8.1,0.9,16.6-2.8,24.1
		c-3.8,7.7-9.8,12.7-20.4,16c0,0-0.2-1.8-1.6-8.3s-2.2-8.2-2.2-8.2c3.9-1.8,8.1-3.3,10-7.3c1.9-3.9,2.4-8.3,1.4-12.5
		c-0.6-3.5-2.5-6.7-5.3-9c-2.6-2.2-6.1-3.1-9.4-2.3c-4.4,1.1-9.8,5-13.5,13.4c5,10.4,9.7,21.5,11.8,30.6c5.2,23.1,3,35.8-6.5,38.1
		c-5.7,1.4-10.7-1.7-15-9.2c-2.8-4.9-5-11.2-6.8-18.9c-2.7-12.1-1.5-28.2,1.5-41.4c-5.8-8.7-8.9-11.8-15.6-19l-0.1-0.1
		c-4.6-4.8-9.6-9.2-14.9-13.2c-10.8,14.7-15.9,32.9-14.5,51.1c0.3,3.4,0.7,6.7,1.4,10l0.5,2.3l0,0l16,72.1l70.2-16.6l2.1-0.5l0,0
		C4416.4,285.8,4440.4,252.9,4437.6,215.7"/>
	<path id="Tracé_2549" class="st0" d="M4351.3,244c-1.4-6.2-3.7-11.9-6.9-19c-0.7,5.7-0.6,11.4,0.3,17.1c0.6,5.3,2.4,10.5,5.3,15
		C4353.5,262,4352.6,249.8,4351.3,244"/>
	<g id="Groupe_244" transform="translate(4460.074 181.676)">
		<path id="Tracé_2550" class="st0" d="M8.6,45.8V68H0V0h19.5c5.4,0.6,10.4,3,14.2,6.9c4.3,4.2,6.7,9.9,6.7,15.9
			c0.1,6.1-2.4,11.9-6.8,16.1c-4.4,4.5-10.4,7-16.7,6.8L8.6,45.8L8.6,45.8z M8.6,7.5v30.8H17c3.9,0,7.7-1.6,10.4-4.4
			c2.9-2.9,4.6-6.9,4.5-11c0.1-4.1-1.5-8.1-4.5-11C24.6,9,20.9,7.4,17,7.5H8.6z"/>
		<path id="Tracé_2551" class="st0" d="M69.2,31.2c-3.5,0.4-6.7,2-9.1,4.7c-2.2,2.6-3.3,6-3.2,9.4V68h-8.6V24.8h8.6V31
			c1.3-3.4,4-5.7,8.1-7.1L69.2,31.2z"/>
		<path id="Tracé_2552" class="st0" d="M88.7,12.5c2.1,1.8,2.3,5,0.5,7.1c-0.2,0.2-0.3,0.3-0.5,0.5c-2.5,2.2-6.2,2.2-8.7,0
			c-2.1-1.9-2.3-5.1-0.4-7.2c0.1-0.1,0.3-0.3,0.4-0.4C82.5,10.3,86.2,10.3,88.7,12.5 M88.6,68h-8.5V24.8h8.5V68z"/>
		<path id="Tracé_2553" class="st0" d="M140.9,24.8L121.5,68h-5.4l-19-43.2h9.4l12.4,28.8l12.6-28.8H140.9z"/>
		<path id="Tracé_2554" class="st0" d="M195.7,68h-8.6v-7.6c-3.4,5.8-8.5,8.7-15.4,8.7c-6.5,0.1-12.8-2.4-17.4-7.1
			c-9.3-9-9.5-23.9-0.5-33.2c0.2-0.2,0.3-0.3,0.5-0.5c4.6-4.7,10.9-7.2,17.4-7.1c6.9,0,12,2.9,15.4,8.6v-5.1h8.6V68z M187.2,48.7
			v-6.9c-0.6-3.1-2.1-5.9-4.3-8.1c-5.8-6.2-15.5-6.4-21.6-0.7c-0.2,0.2-0.4,0.4-0.6,0.6c-3.1,3.1-4.8,7.3-4.7,11.7
			c-0.1,4.3,1.6,8.5,4.7,11.6c6.2,6.1,16.2,6,22.3-0.2C185.1,54.5,186.6,51.7,187.2,48.7"/>
		<path id="Tracé_2555" class="st0" d="M212.4,24.8V8h8.5v16.8h8v7.4h-8V68h-8.5V32.2h-8v-7.4L212.4,24.8z"/>
		<path id="Tracé_2556" class="st0" d="M339.1,68h-8.6v-7.6c-3.4,5.8-8.5,8.7-15.4,8.7c-6.5,0.1-12.8-2.4-17.4-7.1
			c-9.3-9-9.5-23.9-0.5-33.2c0.2-0.2,0.3-0.3,0.5-0.5c4.6-4.7,10.9-7.2,17.4-7.1c6.9,0,12,2.9,15.4,8.6v-5.1h8.6V68z M330.5,48.7
			v-6.9c-0.6-3.1-2.1-5.9-4.3-8.1c-5.8-6.2-15.5-6.4-21.6-0.7c-0.2,0.2-0.4,0.4-0.6,0.6c-3.1,3.1-4.8,7.3-4.7,11.7
			c-0.1,4.3,1.6,8.5,4.7,11.6c6.2,6.1,16.1,6,22.3-0.2C328.5,54.5,329.9,51.7,330.5,48.7"/>
		<path id="Tracé_2557" class="st0" d="M468,31.2c-3.5,0.4-6.7,2-9.1,4.7c-2.2,2.6-3.3,6-3.2,9.4V68h-8.6V24.8h8.6V31
			c1.3-3.4,4-5.7,8.1-7.1L468,31.2z"/>
		<path id="Tracé_2558" class="st0" d="M282.2,46.5c0-7.5-2.2-13.6-6.7-18.2s-10.2-6.8-17.4-6.8c-6.8,0-12.3,2.2-16.7,6.8
			c-4.5,4.6-6.7,10.2-6.7,17.2c-0.2,6.3,2.2,12.4,6.7,16.8c4.5,4.5,10.2,6.7,17.4,6.7c4.1,0.1,8.2-0.7,12-2.4
			c2.8-1.4,5.3-3.4,7.3-5.9l-7.4-3.5c-3.3,2.9-7.6,4.5-12,4.5c-3.8,0.1-7.5-1.1-10.4-3.4c-2.8-2.3-4.6-5.6-5.1-9.1l-0.3-1.9h39.4
			L282.2,46.5z M243.1,40.7c1.5-5.4,3.9-7.7,5.7-9c2.9-2.1,6.3-3.2,9.9-3.2c3.3-0.1,6.5,0.9,9.2,2.8c2.7,1.9,4.5,3.9,5.7,9.4
			L243.1,40.7L243.1,40.7z"/>
		<path id="Tracé_2559" class="st0" d="M438,46.5c0-7.5-2.2-13.6-6.7-18.2s-10.2-6.8-17.4-6.8c-6.8,0-12.3,2.2-16.7,6.8
			c-4.5,4.6-6.7,10.2-6.7,17.2c-0.2,6.3,2.2,12.4,6.7,16.8c4.5,4.5,10.2,6.7,17.4,6.7c4.1,0.1,8.2-0.7,12-2.4
			c2.8-1.4,5.3-3.4,7.3-5.9l-7.4-3.5c-3.3,2.9-7.6,4.5-12,4.5c-3.8,0.1-7.5-1.1-10.4-3.4c-2.8-2.3-4.6-5.6-5.1-9.1l-0.3-1.9H438
			V46.5z M398.8,40.7c1.5-5.4,3.9-7.7,5.7-9c2.9-2.1,6.3-3.2,9.9-3.2c3.3-0.1,6.5,0.9,9.2,2.8c2.7,1.9,4.5,3.9,5.7,9.4L398.8,40.7
			L398.8,40.7z"/>
		<path id="Tracé_2560" class="st0" d="M377.5,65.2c4.8-4.4,5.6-11.7,1.9-17c-1.6-2.2-4.6-4.4-9.1-6.6l-4.5-2.2
			c-2.8-1.4-3.7-2.1-4.1-2.6c-0.7-0.8-1.1-1.8-1.2-2.9c0-1.4,0.7-2.7,1.8-3.5c1.2-0.9,2.7-1.3,4.2-1.2c2.6,0,5.4,1.3,8.3,3.9
			l5.3-5.3c-3.4-4-8.4-6.3-13.7-6.2c-3.7-0.2-7.4,1.1-10.2,3.6c-2.5,2.1-3.9,5.3-3.9,8.6c0,5.3,3.6,9.7,10.8,13.3l4.1,2
			c4.2,2.1,6.2,4.4,6.2,7c0,1.6-0.8,3.1-2.1,4c-1.4,1.1-3.1,1.6-4.9,1.5c-2.1-0.1-4.1-0.7-5.9-1.7c-1.5-0.8-3-1.8-4.2-3l-5.3,5.8
			c3.6,4.3,9.1,6.7,14.7,6.5C370.8,69.1,374.6,67.8,377.5,65.2"/>
	</g>
</g>
<g class="st1">
	<path class="st0" d="M303.9,157.3c-2.1-0.7-3.7-1.6-4.9-2.7l1.6-3.3c1.1,1,2.6,1.8,4.3,2.5c1.7,0.6,3.5,0.9,5.4,0.9
		c2.4,0,4.3-0.4,5.5-1.2c1.2-0.8,1.8-1.9,1.8-3.3c0-1-0.3-1.8-1-2.5c-0.7-0.6-1.5-1.1-2.4-1.4c-1-0.3-2.3-0.7-4.1-1.1
		c-2.2-0.5-4-1.1-5.4-1.6c-1.4-0.5-2.5-1.4-3.5-2.5c-1-1.1-1.4-2.6-1.4-4.5c0-1.6,0.4-3,1.2-4.2c0.8-1.3,2.1-2.3,3.8-3
		c1.7-0.8,3.8-1.1,6.3-1.1c1.7,0,3.4,0.2,5.1,0.7c1.7,0.4,3.1,1.1,4.3,1.9l-1.4,3.4c-1.2-0.8-2.5-1.4-3.9-1.8
		c-1.4-0.4-2.8-0.6-4.1-0.6c-2.4,0-4.2,0.4-5.4,1.3c-1.2,0.9-1.8,2-1.8,3.4c0,1,0.3,1.8,1,2.5s1.5,1.1,2.5,1.5
		c1,0.4,2.3,0.7,4.1,1.1c2.2,0.5,4,1.1,5.3,1.6c1.3,0.5,2.5,1.3,3.5,2.4c1,1.1,1.4,2.6,1.4,4.4c0,1.5-0.4,2.9-1.3,4.2
		s-2.1,2.3-3.8,3c-1.7,0.7-3.8,1.1-6.3,1.1C308,158.3,305.9,158,303.9,157.3z"/>
	<path class="st0" d="M361.7,138c1.6,1.6,2.5,4,2.5,7.2V158h-4v-12.3c0-2.2-0.5-3.8-1.5-4.9s-2.4-1.6-4.3-1.6c-2,0-3.7,0.6-4.9,1.9
		c-1.2,1.3-1.8,3.1-1.8,5.5V158h-4v-12.3c0-2.2-0.5-3.8-1.5-4.9s-2.4-1.6-4.3-1.6c-2,0-3.7,0.6-4.9,1.9c-1.2,1.3-1.8,3.1-1.8,5.5
		V158h-4v-22.3h3.9v3.3c0.8-1.1,1.9-2,3.2-2.6c1.3-0.6,2.8-0.9,4.5-0.9c1.7,0,3.3,0.4,4.6,1c1.3,0.7,2.4,1.7,3.1,3.1
		c0.8-1.3,2-2.3,3.5-3c1.5-0.7,3.2-1.1,5.1-1.1C357.8,135.5,360,136.3,361.7,138z"/>
	<path class="st0" d="M386.8,137.8c1.6,1.5,2.5,3.8,2.5,6.8V158h-3.8v-2.9c-0.7,1-1.6,1.8-2.9,2.4c-1.2,0.5-2.7,0.8-4.4,0.8
		c-2.5,0-4.5-0.6-6-1.8c-1.5-1.2-2.2-2.8-2.2-4.7s0.7-3.5,2.1-4.7c1.4-1.2,3.7-1.8,6.8-1.8h6.4v-0.8c0-1.7-0.5-3.1-1.5-4
		c-1-0.9-2.5-1.4-4.5-1.4c-1.3,0-2.6,0.2-3.9,0.7c-1.3,0.4-2.3,1-3.2,1.7l-1.7-3c1.1-0.9,2.5-1.6,4.1-2.1c1.6-0.5,3.3-0.7,5.1-0.7
		C382.8,135.5,385.1,136.3,386.8,137.8z M382.7,154.1c1.1-0.7,1.9-1.7,2.4-2.9v-3.1H379c-3.4,0-5.1,1.1-5.1,3.4c0,1.1,0.4,2,1.3,2.6
		c0.9,0.6,2.1,1,3.6,1S381.6,154.8,382.7,154.1z"/>
	<path class="st0" d="M403.7,136.5c1.4-0.7,3-1,5-1v3.9c-0.2,0-0.5,0-0.9,0c-2.2,0-3.9,0.7-5.1,2c-1.2,1.3-1.9,3.2-1.9,5.6V158h-4
		v-22.3h3.9v3.7C401.3,138.2,402.3,137.2,403.7,136.5z"/>
	<path class="st0" d="M427.1,156.7c-0.6,0.5-1.3,0.9-2.2,1.2c-0.9,0.3-1.8,0.4-2.7,0.4c-2.2,0-4-0.6-5.2-1.8
		c-1.2-1.2-1.8-2.9-1.8-5.2v-12.2h-3.8v-3.3h3.8v-4.9h4v4.9h6.4v3.3h-6.4v12.1c0,1.2,0.3,2.1,0.9,2.8c0.6,0.6,1.5,1,2.6,1
		c1.2,0,2.3-0.3,3.2-1L427.1,156.7z"/>
	<path class="st0" d="M451.2,148.2h-18.1c0.3,2,1.1,3.5,2.6,4.7s3.3,1.8,5.5,1.8c2.7,0,4.8-0.9,6.4-2.7l2.2,2.6
		c-1,1.2-2.3,2.1-3.8,2.7c-1.5,0.6-3.2,0.9-5,0.9c-2.4,0-4.4-0.5-6.3-1.4s-3.2-2.3-4.2-4.1c-1-1.7-1.5-3.7-1.5-5.9
		c0-2.2,0.5-4.1,1.4-5.8s2.3-3.1,4-4.1c1.7-1,3.6-1.4,5.7-1.4s4,0.5,5.7,1.4c1.7,1,3,2.3,3.9,4.1c0.9,1.7,1.4,3.7,1.4,6
		C451.3,147.3,451.3,147.7,451.2,148.2z M435.4,140.7c-1.3,1.2-2.1,2.7-2.3,4.6h14.3c-0.2-1.9-1-3.4-2.3-4.6
		c-1.3-1.2-2.9-1.8-4.9-1.8C438.4,138.9,436.7,139.5,435.4,140.7z"/>
	<path class="st0" d="M463.8,136.5c1.4-0.7,3-1,5-1v3.9c-0.2,0-0.5,0-0.9,0c-2.2,0-3.9,0.7-5.1,2c-1.2,1.3-1.9,3.2-1.9,5.6V158h-4
		v-22.3h3.9v3.7C461.4,138.2,462.5,137.2,463.8,136.5z"/>
	<path class="st0" d="M505.4,148.2h-18.1c0.3,2,1.1,3.5,2.6,4.7c1.5,1.2,3.3,1.8,5.5,1.8c2.7,0,4.8-0.9,6.4-2.7l2.2,2.6
		c-1,1.2-2.3,2.1-3.8,2.7c-1.5,0.6-3.2,0.9-5,0.9c-2.4,0-4.4-0.5-6.3-1.4c-1.8-1-3.2-2.3-4.2-4.1c-1-1.7-1.5-3.7-1.5-5.9
		c0-2.2,0.5-4.1,1.4-5.8c1-1.7,2.3-3.1,4-4.1c1.7-1,3.6-1.4,5.7-1.4c2.1,0,4,0.5,5.7,1.4c1.7,1,3,2.3,3.9,4.1c0.9,1.7,1.4,3.7,1.4,6
		C505.5,147.3,505.5,147.7,505.4,148.2z M489.7,140.7c-1.3,1.2-2.1,2.7-2.3,4.6h14.3c-0.2-1.9-1-3.4-2.3-4.6
		c-1.3-1.2-2.9-1.8-4.9-1.8C492.6,138.9,491,139.5,489.7,140.7z"/>
	<path class="st0" d="M530.4,135.7l-9.7,22.3h-4.1l-9.7-22.3h4.2l7.6,17.8l7.8-17.8H530.4z"/>
	<path class="st0" d="M553.6,148.2h-18.1c0.3,2,1.1,3.5,2.6,4.7c1.5,1.2,3.3,1.8,5.5,1.8c2.7,0,4.8-0.9,6.4-2.7l2.2,2.6
		c-1,1.2-2.3,2.1-3.8,2.7c-1.5,0.6-3.2,0.9-5,0.9c-2.4,0-4.4-0.5-6.3-1.4c-1.8-1-3.2-2.3-4.2-4.1c-1-1.7-1.5-3.7-1.5-5.9
		c0-2.2,0.5-4.1,1.4-5.8c1-1.7,2.3-3.1,4-4.1c1.7-1,3.6-1.4,5.7-1.4c2.1,0,4,0.5,5.7,1.4c1.7,1,3,2.3,3.9,4.1c0.9,1.7,1.4,3.7,1.4,6
		C553.6,147.3,553.6,147.7,553.6,148.2z M537.8,140.7c-1.3,1.2-2.1,2.7-2.3,4.6h14.3c-0.2-1.9-1-3.4-2.3-4.6
		c-1.3-1.2-2.9-1.8-4.9-1.8C540.7,138.9,539.1,139.5,537.8,140.7z"/>
	<path class="st0" d="M577.9,138c1.7,1.6,2.5,4,2.5,7.2V158h-4v-12.3c0-2.2-0.5-3.8-1.6-4.9c-1-1.1-2.5-1.6-4.5-1.6
		c-2.2,0-3.9,0.6-5.2,1.9c-1.3,1.3-1.9,3.1-1.9,5.5V158h-4v-22.3h3.9v3.4c0.8-1.1,1.9-2,3.3-2.6c1.4-0.6,3-0.9,4.7-0.9
		C573.9,135.5,576.2,136.3,577.9,138z"/>
	<path class="st0" d="M600.3,156.7c-0.6,0.5-1.3,0.9-2.2,1.2c-0.9,0.3-1.8,0.4-2.7,0.4c-2.2,0-4-0.6-5.2-1.8
		c-1.2-1.2-1.8-2.9-1.8-5.2v-12.2h-3.8v-3.3h3.8v-4.9h4v4.9h6.4v3.3h-6.4v12.1c0,1.2,0.3,2.1,0.9,2.8c0.6,0.6,1.5,1,2.6,1
		c1.2,0,2.3-0.3,3.2-1L600.3,156.7z"/>
	<path class="st0" d="M606.4,157.5c-1.7-0.5-3-1.1-3.9-1.9l1.7-3.2c1,0.7,2.2,1.3,3.6,1.7s2.8,0.6,4.2,0.6c3.5,0,5.3-1,5.3-3
		c0-0.7-0.2-1.2-0.7-1.6c-0.5-0.4-1.1-0.7-1.8-0.9c-0.7-0.2-1.7-0.4-3-0.6c-1.8-0.3-3.3-0.6-4.4-1c-1.1-0.4-2.1-1-2.9-1.8
		c-0.8-0.9-1.2-2.1-1.2-3.7c0-2,0.8-3.6,2.5-4.9c1.7-1.2,3.9-1.8,6.8-1.8c1.5,0,3,0.2,4.5,0.5c1.5,0.4,2.7,0.9,3.7,1.5l-1.7,3.2
		c-1.8-1.2-4-1.8-6.4-1.8c-1.7,0-3,0.3-3.9,0.8c-0.9,0.6-1.3,1.3-1.3,2.2c0,0.7,0.3,1.3,0.8,1.7c0.5,0.4,1.1,0.7,1.9,0.9
		c0.7,0.2,1.8,0.4,3.1,0.7c1.8,0.3,3.2,0.6,4.3,1c1.1,0.4,2.1,0.9,2.8,1.8c0.8,0.8,1.2,2,1.2,3.5c0,2-0.9,3.6-2.6,4.8
		c-1.7,1.2-4.1,1.8-7,1.8C609.8,158.3,608,158,606.4,157.5z"/>
</g>
</svg>
